<?xml version="1.0" encoding="UTF-8" standalone="no"?>
<!-- Created with Inkscape (http://www.inkscape.org/) -->

<svg
   xmlns:dc="http://purl.org/dc/elements/1.1/"
   xmlns:cc="http://creativecommons.org/ns#"
   xmlns:rdf="http://www.w3.org/1999/02/22-rdf-syntax-ns#"
   xmlns:svg="http://www.w3.org/2000/svg"
   xmlns="http://www.w3.org/2000/svg"
   xmlns:sodipodi="http://sodipodi.sourceforge.net/DTD/sodipodi-0.dtd"
   xmlns:inkscape="http://www.inkscape.org/namespaces/inkscape"
   version="1.1"
   width="799.99249"
   height="283.67828"
   id="svg3576"
   inkscape:version="0.48.2 r9819"
   sodipodi:docname="logo.svg">
  <sodipodi:namedview
     pagecolor="#ffffff"
     bordercolor="#666666"
     borderopacity="1"
     objecttolerance="10"
     gridtolerance="10"
     guidetolerance="10"
     inkscape:pageopacity="0"
     inkscape:pageshadow="2"
     inkscape:window-width="1280"
     inkscape:window-height="752"
     id="namedview18"
     showgrid="false"
     showguides="true"
     inkscape:guide-bbox="true"
     fit-margin-top="0"
     fit-margin-left="0"
     fit-margin-right="0"
     fit-margin-bottom="0"
     inkscape:zoom="0.85437122"
     inkscape:cx="569.09788"
     inkscape:cy="-7.8137131"
     inkscape:window-x="0"
     inkscape:window-y="22"
     inkscape:window-maximized="0"
     inkscape:current-layer="svg3576" />
  <defs
     id="defs3578" />
  <metadata
     id="metadata3581">
    <rdf:RDF>
      <cc:Work
         rdf:about="">
        <dc:format>image/svg+xml</dc:format>
        <dc:type
           rdf:resource="http://purl.org/dc/dcmitype/StillImage" />
        <dc:title />
      </cc:Work>
    </rdf:RDF>
  </metadata>
  <g
     transform="matrix(1.2330795,0,0,1.2330795,-417.31795,-545.79715)"
     id="layer1">
    <g
       transform="matrix(1.6155121,0,0,1.708702,424.51003,442.62933)"
       id="g3686"
       style="fill:#aab089;fill-opacity:1">
      <title
         id="title3688">Layer 1</title>
      <g
         id="g3690"
         style="fill:#aab089;fill-opacity:1">
        <path
           d="m 40.999863,1 c -2.739166,0 -5.415161,0.28719 -8,0.8125 l 0,6.1875 c -3.474854,0.83887 -6.719818,2.18462 -9.6875,4 l -4.375,-4.375 c -2.242645,1.48612 -4.292267,3.22976 -6.1875,5.125 -1.895264,1.895229 -3.638885,3.94486 -5.125,6.1875 l 4.375,4.375 c -1.815399,2.96769 -3.161133,6.21265 -4,9.6875 l -6.187515,0 c -0.525299,2.58485 -0.8125,5.26083 -0.8125,8 0,2.73917 0.287201,5.41515 0.8125,8 l 6.187515,0 c 0.838867,3.47485 2.184601,6.719799 4,9.6875 l -4.375,4.375 c 1.486115,2.242638 3.229736,4.292267 5.125,6.1875 1.895233,1.895241 3.944855,3.638885 6.1875,5.125015 L 23.312363,70 c 2.967682,1.815384 6.212646,3.161133 9.6875,4.000015 l 0,6.1875 c 2.584839,0.525299 5.260803,0.8125 8,0.8125 2.739136,0 5.415131,-0.287201 8,-0.8125 l 0,-6.1875 C 52.474686,73.161133 55.719651,71.815384 58.687363,70 l 4.375,4.375015 c 2.242645,-1.48613 4.292236,-3.229774 6.1875,-5.125015 1.895233,-1.895233 3.638885,-3.944862 5.125,-6.1875 l -4.375,-4.375 c 1.815369,-2.967701 3.161102,-6.21265 4,-9.6875 l 6.1875,0 c 0.525299,-2.58485 0.8125,-5.26083 0.8125,-8 0,-2.73917 -0.287201,-5.41515 -0.8125,-8 l -6.1875,0 c -0.838898,-3.47485 -2.184631,-6.71981 -4,-9.6875 l 4.375,-4.375 c -1.486115,-2.24264 -3.229767,-4.292271 -5.125,-6.1875 -1.895264,-1.89524 -3.944855,-3.63888 -6.1875,-5.125 l -4.375,4.375 c -2.967712,-1.81538 -6.212677,-3.16113 -9.6875,-4 l 0,-6.1875 C 46.414994,1.28719 43.738999,1 40.999863,1 z m 0,20 c 11.039978,0 20,8.960001 20,20 0,11.039997 -8.960022,20 -20,20 -11.040009,0 -20,-8.960003 -20,-20 0,-11.039999 8.959991,-20 20,-20 z"
           id="path3692"
           style="fill:#aab089;fill-opacity:1;stroke:#2c2c2c;stroke-width:2;stroke-linecap:round;stroke-linejoin:round;stroke-miterlimit:4;stroke-dashoffset:162"
           inkscape:connector-curvature="0" />
      </g>
      <circle
         cx="41"
         cy="41.000004"
         r="9.21875"
         id="circle3694"
         style="fill:#aab089;fill-opacity:1;stroke:#2c2c2c;stroke-width:5"
         d="m 50.21875,41.000004 c 0,5.091375 -4.127375,9.21875 -9.21875,9.21875 -5.091375,0 -9.21875,-4.127375 -9.21875,-9.21875 0,-5.091375 4.127375,-9.21875 9.21875,-9.21875 5.091375,0 9.21875,4.127375 9.21875,9.21875 z"
         sodipodi:cx="41"
         sodipodi:cy="41.000004"
         sodipodi:rx="9.21875"
         sodipodi:ry="9.21875" />
    </g>
    <g
       transform="matrix(1.5004202,0.59884765,-0.63339184,1.5869711,368.59367,514.41257)"
       id="g3366">
      <title
         id="title3368">Layer 1</title>
      <g
         id="g3370">
        <path
           d="m 40.999863,1 c -2.739166,0 -5.415161,0.28719 -8,0.8125 l 0,6.1875 c -3.474854,0.83887 -6.719818,2.18462 -9.6875,4 l -4.375,-4.375 c -2.242645,1.48612 -4.292267,3.22976 -6.1875,5.125 -1.895264,1.895229 -3.638885,3.94486 -5.125,6.1875 l 4.375,4.375 c -1.815399,2.96769 -3.161133,6.21265 -4,9.6875 l -6.187515,0 c -0.525299,2.58485 -0.8125,5.26083 -0.8125,8 0,2.73917 0.287201,5.41515 0.8125,8 l 6.187515,0 c 0.838867,3.47485 2.184601,6.719799 4,9.6875 l -4.375,4.375 c 1.486115,2.242638 3.229736,4.292267 5.125,6.1875 1.895233,1.895241 3.944855,3.638885 6.1875,5.125015 L 23.312363,70 c 2.967682,1.815384 6.212646,3.161133 9.6875,4.000015 l 0,6.1875 c 2.584839,0.525299 5.260803,0.8125 8,0.8125 2.739136,0 5.415131,-0.287201 8,-0.8125 l 0,-6.1875 C 52.474686,73.161133 55.719651,71.815384 58.687363,70 l 4.375,4.375015 c 2.242645,-1.48613 4.292236,-3.229774 6.1875,-5.125015 1.895233,-1.895233 3.638885,-3.944862 5.125,-6.1875 l -4.375,-4.375 c 1.815369,-2.967701 3.161102,-6.21265 4,-9.6875 l 6.1875,0 c 0.525299,-2.58485 0.8125,-5.26083 0.8125,-8 0,-2.73917 -0.287201,-5.41515 -0.8125,-8 l -6.1875,0 c -0.838898,-3.47485 -2.184631,-6.71981 -4,-9.6875 l 4.375,-4.375 c -1.486115,-2.24264 -3.229767,-4.292271 -5.125,-6.1875 -1.895264,-1.89524 -3.944855,-3.63888 -6.1875,-5.125 l -4.375,4.375 c -2.967712,-1.81538 -6.212677,-3.16113 -9.6875,-4 l 0,-6.1875 C 46.414994,1.28719 43.738999,1 40.999863,1 z m 0,20 c 11.039978,0 20,8.960001 20,20 0,11.039997 -8.960022,20 -20,20 -11.040009,0 -20,-8.960003 -20,-20 0,-11.039999 8.959991,-20 20,-20 z"
           id="path3372"
           style="fill:#949096;stroke:#2c2c2c;stroke-width:2;stroke-linecap:round;stroke-linejoin:round;stroke-miterlimit:4;stroke-dashoffset:162"
           inkscape:connector-curvature="0" />
      </g>
      <circle
         cx="41"
         cy="41.000004"
         r="9.21875"
         id="circle3374"
         style="fill:#949096;stroke:#2c2c2c;stroke-width:5"
         d="m 50.21875,41.000004 c 0,5.091375 -4.127375,9.21875 -9.21875,9.21875 -5.091375,0 -9.21875,-4.127375 -9.21875,-9.21875 0,-5.091375 4.127375,-9.21875 9.21875,-9.21875 5.091375,0 9.21875,4.127375 9.21875,9.21875 z"
         sodipodi:cx="41"
         sodipodi:cy="41.000004"
         sodipodi:rx="9.21875"
         sodipodi:ry="9.21875" />
    </g>
    <text
       x="472.05414"
       y="669.97504"
       id="text3352"
       xml:space="preserve"
       style="font-size:220px;font-style:normal;font-weight:normal;line-height:125%;letter-spacing:0px;word-spacing:0px;fill:#000000;fill-opacity:1;stroke:none;font-family:Sans"
       sodipodi:linespacing="125%"><tspan
         x="472.05414"
         y="669.97504"
         id="tspan3354"
         style="font-size:220px;font-style:normal;font-variant:normal;font-weight:bold;font-stretch:normal;font-family:Yanone Kaffeesatz;-inkscape-font-specification:Yanone Kaffeesatz Bold">BtrPlace</tspan></text>
  </g>
</svg>
